<svg id="Layer_1" enable-background="new 0 0 1080 1080" height="512" viewBox="0 0 1080 1080" width="512" xmlns="http://www.w3.org/2000/svg"><g><path d="m708.9 190.4h-337.8c-82.7 0-150 67.3-150 150v304c0 74.2 54.1 136 125 147.9v46.3c0 18.2 9.3 34.5 24.9 43.8 8.1 4.8 17 7.2 26 7.2 8.4 0 16.7-2.1 24.4-6.3l163-88.9h124.5c82.7 0 150-67.3 150-150v-304c0-82.7-67.3-150-150-150zm100 454c0 55.1-44.9 100-100 100h-137.3l-174.2 95.1c-.3.1-.5.3-.9 0-.5-.3-.5-.5-.5-.8v-94.2h-25c-55.1 0-100-44.9-100-100v-304c0-55.1 44.9-100 100-100h337.9c55.1 0 100 44.9 100 100z"/><path d="m565 397.3h-50v84.7h-84.7v50h84.7v84.7h50v-84.7h84.7v-50h-84.7z"/></g></svg>